<svg version="1.1" id="Layer_1" xmlns="http://www.w3.org/2000/svg" xmlns:xlink="http://www.w3.org/1999/xlink" x="0px" y="0px"
	 width="100%" viewBox="0 0 419 422" enable-background="new 0 0 419 422" xml:space="preserve">
<path fill="#020202" opacity="1.000000" stroke="none" 
	d="
M113.000000,1.000000 
	C176.354233,1.000000 239.708450,1.000000 303.818726,1.271036 
	C308.657898,2.192322 312.761627,2.734906 316.820648,3.511069 
	C336.578217,7.289099 353.999176,16.194323 370.256866,28.243595 
	C372.396423,30.286358 374.629272,31.825630 376.333649,33.817181 
	C384.611359,43.489857 392.747406,53.283741 400.988831,63.386322 
	C405.072845,73.148735 409.101624,82.559509 413.164459,92.351776 
	C414.803833,104.051147 417.701172,115.358162 417.796478,126.688744 
	C418.272949,183.338470 418.016968,239.994370 418.007385,296.648102 
	C418.006897,299.479156 418.151215,302.340698 417.808411,305.136597 
	C413.991486,336.269684 401.689453,363.203369 378.630798,384.968842 
	C354.794769,407.468170 326.448547,419.626068 293.880402,419.787903 
	C231.591003,420.097351 169.296127,419.301422 106.595566,418.965332 
	C98.113480,416.699768 90.039352,414.433136 81.615707,412.061707 
	C72.203384,407.275665 63.140583,402.594421 53.854099,397.667114 
	C40.832249,388.563660 30.583431,377.157013 20.974707,364.637512 
	C18.248220,359.889709 15.115356,355.670166 13.256079,350.949005 
	C8.849298,339.759247 5.046777,328.331543 1.000001,317.000000 
	C1.000000,245.979111 1.000000,174.958206 1.271878,103.214417 
	C1.892979,101.211693 2.247380,99.933258 2.590682,98.651840 
	C15.835165,49.215313 47.312904,17.910606 96.541817,4.370902 
	C101.929382,2.889131 107.509300,2.106764 113.000000,1.000000 
M242.206833,48.233025 
	C241.852615,47.991596 241.498413,47.750172 241.028488,47.125011 
	C241.028488,47.125011 240.729614,46.857967 240.637939,46.238445 
	C227.581116,30.030510 199.525253,27.291882 182.522659,40.683376 
	C180.393799,42.360104 178.783661,44.695415 176.727936,46.893345 
	C176.727936,46.893345 176.740829,47.158112 176.134720,47.253880 
	C168.469376,55.743618 163.904556,65.378586 164.967651,77.983932 
	C165.317322,81.545547 165.666992,85.107162 165.421585,89.033165 
	C122.391167,128.075592 79.322601,167.076218 36.396038,206.232513 
	C32.582722,209.710907 28.501398,211.503464 23.540066,212.021332 
	C21.114584,212.274521 18.336180,212.445557 18.508032,216.123352 
	C18.657513,219.322418 17.700958,222.726700 22.637316,223.691925 
	C28.286543,224.796524 30.989574,228.840591 32.169754,234.499084 
	C33.964592,243.104630 36.270969,251.610748 38.566723,260.103241 
	C45.820621,286.936829 61.608059,305.780304 89.243973,312.976898 
	C110.020790,318.387329 130.488907,316.870209 149.007294,305.800171 
	C169.897873,293.311981 178.971222,272.817719 182.871597,249.660965 
	C184.002625,242.945969 184.194519,236.005127 186.014145,229.502869 
	C186.899948,226.337555 190.121277,222.278305 193.023529,221.544952 
	C199.182281,219.988724 205.860916,219.708878 212.260147,220.072266 
	C221.365311,220.589294 226.137146,225.293655 226.833969,232.785095 
	C227.295273,237.744308 227.791168,242.700577 228.311951,247.653931 
	C230.004562,263.752441 235.910141,278.183838 245.652054,291.058350 
	C252.894363,300.629486 262.161804,307.327362 274.302277,311.017181 
	C278.534088,312.015900 282.765900,313.014618 287.999084,314.544464 
	C288.508850,314.027313 289.018616,313.510162 289.843323,312.996643 
	C290.054108,313.002411 290.263947,312.991119 289.534088,313.645691 
	C291.419525,314.246277 293.270416,315.209839 295.195587,315.393066 
	C324.236572,318.156769 348.528320,309.541809 365.029053,284.488251 
	C374.010895,270.850861 377.858093,254.988190 380.677887,239.096405 
	C382.066833,231.268616 385.183929,225.738678 392.948975,223.318878 
	C397.292267,221.965393 395.134521,218.316330 395.273346,215.705490 
	C395.319122,214.843964 393.062073,213.656021 391.683563,212.965759 
	C388.925598,211.584763 385.486053,211.068726 383.304749,209.108536 
	C359.791565,187.979187 336.502075,166.601273 313.083282,145.366470 
	C294.485535,128.503113 275.793243,111.743958 256.848114,94.346115 
	C254.914917,92.632011 252.981720,90.917908 251.084625,88.287033 
	C251.413391,84.627777 251.742157,80.968513 252.395172,76.891068 
	C253.371841,67.842140 250.437363,59.946869 245.228836,52.816681 
	C245.228836,52.816681 245.338806,52.819782 245.194107,52.156372 
	C244.189163,51.004341 243.184204,49.852310 242.127960,48.859924 
	C242.127960,48.859924 242.292526,48.892113 242.206833,48.233025 
z"/>
<path fill="#4F4F4F" opacity="1.000000" stroke="none" 
	d="
M112.531342,1.000000 
	C107.509300,2.106764 101.929382,2.889131 96.541817,4.370902 
	C47.312904,17.910606 15.835165,49.215313 2.590682,98.651840 
	C2.247380,99.933258 1.892979,101.211693 1.271878,102.745758 
	C1.000000,69.069641 1.000000,35.139278 1.000000,1.000000 
	C38.020634,1.000000 75.041656,1.000000 112.531342,1.000000 
z"/>
<path fill="#4E4E4E" opacity="1.000000" stroke="none" 
	d="
M370.106598,27.948565 
	C353.999176,16.194323 336.578217,7.289099 316.820648,3.511069 
	C312.761627,2.734906 308.657898,2.192322 304.287415,1.271036 
	C342.578369,1.000000 381.156738,1.000000 420.000000,1.000000 
	C420.000000,26.020271 420.000000,51.041477 419.675201,76.432129 
	C415.922546,71.574066 412.766724,66.138260 408.976440,61.188286 
	C406.193420,57.553810 402.553040,54.581123 399.341553,51.268120 
	C395.132111,46.925621 391.065552,42.439426 386.742065,38.215092 
	C384.773132,36.291313 381.843445,35.223129 380.221771,33.100498 
	C377.554596,29.609381 374.511292,27.650106 370.106598,27.948565 
z"/>
<path fill="#4F4F4F" opacity="1.000000" stroke="none" 
	d="
M1.000001,317.468658 
	C5.046777,328.331543 8.849298,339.759247 13.256079,350.949005 
	C15.115356,355.670166 18.248220,359.889709 20.742340,364.880737 
	C20.733145,366.351227 20.430557,367.533508 20.888048,368.166412 
	C26.598665,376.066803 31.798979,384.459747 38.368607,391.584381 
	C46.651707,400.567230 55.687897,408.926605 66.463142,415.140503 
	C70.232643,417.314301 73.502167,420.355103 77.000000,423.000000 
	C51.727703,423.000000 26.455410,423.000000 1.000000,423.000000 
	C1.000000,387.979309 1.000000,352.958313 1.000001,317.468658 
z"/>
<path fill="#282828" opacity="1.000000" stroke="none" 
	d="
M107.003510,418.964233 
	C169.296127,419.301422 231.591003,420.097351 293.880402,419.787903 
	C326.448547,419.626068 354.794769,407.468170 378.630798,384.968842 
	C401.689453,363.203369 413.991486,336.269684 417.808411,305.136597 
	C418.151215,302.340698 418.006897,299.479156 418.007385,296.648102 
	C418.016968,239.994370 418.272949,183.338470 417.796478,126.688744 
	C417.701172,115.358162 414.803833,104.051147 413.485046,92.465233 
	C414.927307,94.502380 416.052307,96.823624 417.248871,99.107391 
	C418.116852,100.763969 419.079559,102.370903 420.000000,104.000000 
	C420.000000,181.354233 420.000000,258.708466 419.658264,336.660583 
	C415.798553,345.547363 412.742706,354.072052 408.660919,362.073364 
	C401.403839,376.299103 390.920929,388.261841 378.713470,398.269409 
	C366.129852,408.585358 351.655426,416.021027 335.883209,420.637054 
	C334.785645,420.958313 333.954834,422.191101 333.000000,423.000000 
	C258.979095,423.000000 184.958206,423.000000 110.376541,422.686096 
	C108.878349,421.236176 107.940926,420.100189 107.003510,418.964233 
z"/>
<path fill="#4F4F4F" opacity="1.000000" stroke="none" 
	d="
M420.000000,367.000000 
	C420.000000,385.593445 420.000000,404.186920 420.000000,423.000000 
	C401.646362,423.000000 383.291840,423.000000 364.536560,422.662842 
	C364.875519,421.478943 365.472412,420.413330 366.378815,419.822205 
	C371.079742,416.756409 376.242096,414.276733 380.541901,410.739685 
	C394.746552,399.054749 407.799591,386.253082 417.006073,370.035217 
	C417.683685,368.841614 418.987366,368.003418 420.000000,367.000000 
z"/>
<path fill="#313131" opacity="1.000000" stroke="none" 
	d="
M333.460632,423.000000 
	C333.954834,422.191101 334.785645,420.958313 335.883209,420.637054 
	C351.655426,416.021027 366.129852,408.585358 378.713470,398.269409 
	C390.920929,388.261841 401.403839,376.299103 408.660919,362.073364 
	C412.742706,354.072052 415.798553,345.547363 419.658264,337.129242 
	C420.000000,340.692902 420.000000,344.385834 419.664215,348.660492 
	C418.160187,351.913055 417.327240,354.800598 415.765259,357.216888 
	C409.238434,367.313843 403.590881,378.285278 395.528351,387.000153 
	C386.905304,396.320953 376.246490,403.905670 365.852966,411.381714 
	C360.313202,415.366455 353.433197,417.473083 347.221008,420.554169 
	C346.302307,421.009857 345.731659,422.167236 345.000000,423.000000 
	C341.307098,423.000000 337.614166,423.000000 333.460632,423.000000 
z"/>
<path fill="#424242" opacity="1.000000" stroke="none" 
	d="
M370.256866,28.243595 
	C374.511292,27.650106 377.554596,29.609381 380.221771,33.100498 
	C381.843445,35.223129 384.773132,36.291313 386.742065,38.215092 
	C391.065552,42.439426 395.132111,46.925621 399.341553,51.268120 
	C402.553040,54.581123 406.193420,57.553810 408.976440,61.188286 
	C412.766724,66.138260 415.922546,71.574066 419.675201,76.900787 
	C420.000000,81.356903 420.000000,85.713799 419.664673,90.437576 
	C418.333923,89.333534 417.153412,87.953239 416.379669,86.373688 
	C414.501678,82.539711 413.283722,78.295067 410.927063,74.805298 
	C408.063995,70.565659 404.305023,66.931053 400.933655,63.034691 
	C392.747406,53.283741 384.611359,43.489857 376.333649,33.817181 
	C374.629272,31.825630 372.396423,30.286358 370.256866,28.243595 
z"/>
<path fill="#444444" opacity="1.000000" stroke="none" 
	d="
M77.458069,423.000000 
	C73.502167,420.355103 70.232643,417.314301 66.463142,415.140503 
	C55.687897,408.926605 46.651707,400.567230 38.368607,391.584381 
	C31.798979,384.459747 26.598665,376.066803 20.888048,368.166412 
	C20.430557,367.533508 20.733145,366.351227 20.914879,365.180969 
	C30.583431,377.157013 40.832249,388.563660 53.754978,397.937836 
	C54.194645,399.134857 54.328083,400.046173 54.853333,400.458954 
	C59.449928,404.071320 63.915958,407.906586 68.817741,411.058197 
	C73.888885,414.318695 79.444046,416.818268 84.694221,419.814148 
	C85.982597,420.549347 86.907822,421.920959 88.000000,423.000000 
	C84.638710,423.000000 81.277428,423.000000 77.458069,423.000000 
z"/>
<path fill="#464646" opacity="1.000000" stroke="none" 
	d="
M420.000000,366.550018 
	C418.987366,368.003418 417.683685,368.841614 417.006073,370.035217 
	C407.799591,386.253082 394.746552,399.054749 380.541901,410.739685 
	C376.242096,414.276733 371.079742,416.756409 366.378815,419.822205 
	C365.472412,420.413330 364.875519,421.478943 364.067932,422.662842 
	C360.969391,423.000000 357.938812,423.000000 354.552185,422.666443 
	C356.572144,420.933228 358.899963,419.443146 361.331512,418.147766 
	C384.976105,405.551331 402.926636,387.230682 416.007416,363.970764 
	C417.177521,361.890106 418.661682,359.986053 420.000000,358.000000 
	C420.000000,360.700012 420.000000,363.400024 420.000000,366.550018 
z"/>
<path fill="#3C3C3C" opacity="1.000000" stroke="none" 
	d="
M420.000000,357.550018 
	C418.661682,359.986053 417.177521,361.890106 416.007416,363.970764 
	C402.926636,387.230682 384.976105,405.551331 361.331512,418.147766 
	C358.899963,419.443146 356.572144,420.933228 354.098083,422.666443 
	C351.299988,423.000000 348.599976,423.000000 345.449982,423.000000 
	C345.731659,422.167236 346.302307,421.009857 347.221008,420.554169 
	C353.433197,417.473083 360.313202,415.366455 365.852966,411.381714 
	C376.246490,403.905670 386.905304,396.320953 395.528351,387.000153 
	C403.590881,378.285278 409.238434,367.313843 415.765259,357.216888 
	C417.327240,354.800598 418.160187,351.913055 419.664215,349.121124 
	C420.000000,351.700012 420.000000,354.400024 420.000000,357.550018 
z"/>
<path fill="#363636" opacity="1.000000" stroke="none" 
	d="
M88.463181,423.000000 
	C86.907822,421.920959 85.982597,420.549347 84.694221,419.814148 
	C79.444046,416.818268 73.888885,414.318695 68.817741,411.058197 
	C63.915958,407.906586 59.449928,404.071320 54.853333,400.458954 
	C54.328083,400.046173 54.194645,399.134857 53.978661,398.183960 
	C63.140583,402.594421 72.203384,407.275665 81.662315,412.414246 
	C87.034248,415.505066 92.013046,418.132874 96.983917,420.775635 
	C98.334938,421.493896 99.661964,422.257294 101.000008,423.000000 
	C96.975456,423.000000 92.950912,423.000000 88.463181,423.000000 
z"/>
<path fill="#343434" opacity="1.000000" stroke="none" 
	d="
M400.988831,63.386326 
	C404.305023,66.931053 408.063995,70.565659 410.927063,74.805298 
	C413.283722,78.295067 414.501678,82.539711 416.379669,86.373688 
	C417.153412,87.953239 418.333923,89.333534 419.664673,90.902229 
	C420.000000,95.024544 420.000000,99.049088 420.000000,103.536812 
	C419.079559,102.370903 418.116852,100.763969 417.248871,99.107391 
	C416.052307,96.823624 414.927307,94.502380 413.451050,92.083740 
	C409.101624,82.559509 405.072845,73.148735 400.988831,63.386326 
z"/>
<path fill="#2D2D2D" opacity="1.000000" stroke="none" 
	d="
M101.449982,423.000000 
	C99.661964,422.257294 98.334938,421.493896 96.983917,420.775635 
	C92.013046,418.132874 87.034248,415.505066 82.011841,412.519043 
	C90.039352,414.433136 98.113480,416.699768 106.595558,418.965302 
	C107.940926,420.100189 108.878349,421.236176 109.907883,422.686096 
	C107.299988,423.000000 104.599968,423.000000 101.449982,423.000000 
z"/>
<path fill="#030303" opacity="1.000000" stroke="none" 
	d="
M290.472839,312.962738 
	C290.263947,312.991119 290.054108,313.002411 289.455261,312.623169 
	C288.493103,312.195038 287.918976,312.140411 287.046967,311.922607 
	C282.488098,310.590790 278.227173,309.422119 273.651428,308.075134 
	C268.361267,304.916107 263.221649,302.175293 258.444824,298.904510 
	C248.621628,292.178345 244.179199,281.622955 239.790665,271.211334 
	C234.679108,259.084351 232.545883,246.086243 233.845444,233.214508 
	C235.909622,212.769577 249.956543,201.727768 268.280640,196.234497 
	C297.235748,187.554214 325.467865,190.618500 352.386597,204.316330 
	C361.118011,208.759369 368.383209,214.980301 372.064270,224.587906 
	C376.976837,237.409744 375.331573,249.983627 371.273102,262.632019 
	C362.267181,290.699188 344.682007,308.981537 314.328491,312.374481 
	C306.453094,313.254791 298.428772,312.802795 290.472839,312.962738 
z"/>
<path fill="#C1C1C1" opacity="1.000000" stroke="none" 
	d="
M290.003479,313.304199 
	C298.428772,312.802795 306.453094,313.254791 314.328491,312.374481 
	C344.682007,308.981537 362.267181,290.699188 371.273102,262.632019 
	C375.331573,249.983627 376.976837,237.409744 372.064270,224.587906 
	C368.383209,214.980301 361.118011,208.759369 352.386597,204.316330 
	C325.467865,190.618500 297.235748,187.554214 268.280640,196.234497 
	C249.956543,201.727768 235.909622,212.769577 233.845444,233.214508 
	C232.545883,246.086243 234.679108,259.084351 239.790665,271.211334 
	C244.179199,281.622955 248.621628,292.178345 258.444824,298.904510 
	C263.221649,302.175293 268.361267,304.916107 273.634155,308.456451 
	C273.894775,309.523712 273.857941,310.031311 273.821106,310.538910 
	C262.161804,307.327362 252.894363,300.629486 245.652054,291.058350 
	C235.910141,278.183838 230.004562,263.752441 228.311951,247.653931 
	C227.791168,242.700577 227.295273,237.744308 226.833969,232.785095 
	C226.137146,225.293655 221.365311,220.589294 212.260147,220.072266 
	C205.860916,219.708878 199.182281,219.988724 193.023529,221.544952 
	C190.121277,222.278305 186.899948,226.337555 186.014145,229.502869 
	C184.194519,236.005127 184.002625,242.945969 182.871597,249.660965 
	C178.971222,272.817719 169.897873,293.311981 149.007294,305.800171 
	C130.488907,316.870209 110.020790,318.387329 89.243973,312.976898 
	C61.608059,305.780304 45.820621,286.936829 38.566723,260.103241 
	C36.270969,251.610748 33.964592,243.104630 32.169754,234.499084 
	C30.989574,228.840591 28.286543,224.796524 22.637316,223.691925 
	C17.700958,222.726700 18.657513,219.322418 18.508032,216.123352 
	C18.336180,212.445557 21.114584,212.274521 23.540066,212.021332 
	C28.501398,211.503464 32.582722,209.710907 36.396038,206.232513 
	C79.322601,167.076218 122.391167,128.075592 166.004150,89.022949 
	C167.077301,89.755486 167.567917,90.498238 167.999786,91.528946 
	C167.866394,92.408691 167.791733,93.000473 167.421112,93.757050 
	C166.730820,94.227867 166.314011,94.509117 165.945343,94.843437 
	C127.352562,129.840103 88.760597,164.837646 50.189758,199.858475 
	C49.193581,200.762985 48.431103,201.924866 46.659573,204.042755 
	C49.194256,203.459885 50.282333,203.291840 51.317432,202.959000 
	C62.180389,199.465881 72.848869,195.126160 83.932190,192.612686 
	C104.175346,188.021973 124.715927,187.666748 144.425461,194.965088 
	C154.427902,198.668930 163.504105,204.821594 173.169403,209.516525 
	C176.630081,211.197556 180.895920,213.372543 184.270859,212.699097 
	C197.527573,210.053772 210.614899,210.250595 223.939499,211.807724 
	C228.001236,212.282349 232.690567,210.742096 236.531250,208.933090 
	C241.742233,206.478653 246.233826,202.539902 251.346100,199.825684 
	C277.908844,185.722748 305.643463,186.203751 333.727844,194.027069 
	C342.625214,196.505569 351.225250,200.051575 360.158142,203.321808 
	C360.899689,203.699722 361.444489,203.864914 362.232971,204.317093 
	C364.595551,205.375549 366.684967,206.248672 368.845825,206.875351 
	C369.916321,207.185806 371.118347,207.042679 372.260864,207.104782 
	C371.582764,206.039597 370.904663,204.974411 370.075806,203.612610 
	C369.075409,202.607620 368.225830,201.899246 367.213074,200.928650 
	C365.074005,199.004791 363.098145,197.343140 361.019226,195.447495 
	C360.254364,194.702805 359.592590,194.192093 358.757874,193.361954 
	C353.803497,188.674744 349.092896,184.225540 344.208252,179.976364 
	C342.037170,178.087738 339.515045,176.602646 337.046875,174.661804 
	C336.355774,173.898849 335.770020,173.408463 335.126160,172.569946 
	C322.543365,160.663483 310.035126,149.087296 297.489777,137.551529 
	C282.854187,124.093758 268.186188,110.671288 253.849167,97.068443 
	C255.158371,96.248436 256.150665,95.593483 257.142944,94.938538 
	C275.793243,111.743958 294.485535,128.503113 313.083282,145.366470 
	C336.502075,166.601273 359.791565,187.979187 383.304749,209.108536 
	C385.486053,211.068726 388.925598,211.584763 391.683563,212.965759 
	C393.062073,213.656021 395.319122,214.843964 395.273346,215.705490 
	C395.134521,218.316330 397.292267,221.965393 392.948975,223.318878 
	C385.183929,225.738678 382.066833,231.268616 380.677887,239.096405 
	C377.858093,254.988190 374.010895,270.850861 365.029053,284.488251 
	C348.528320,309.541809 324.236572,318.156769 295.195587,315.393066 
	C293.270416,315.209839 291.419525,314.246277 290.003479,313.304199 
M155.292496,296.808441 
	C165.767090,287.042725 171.077560,274.402191 174.936737,261.037354 
	C177.579300,251.885818 179.306656,242.550949 177.377319,232.990433 
	C173.929916,215.907181 162.981873,205.079590 147.296158,199.193832 
	C120.926857,189.299255 94.432625,190.937531 68.309410,200.470627 
	C55.516449,205.139145 44.833099,212.661880 40.736897,226.509842 
	C37.598331,237.120346 38.589546,247.903381 41.420097,258.482208 
	C46.149891,276.159149 54.470173,291.490295 70.380104,301.690674 
	C78.767265,307.067932 88.070450,309.700989 97.839920,311.323181 
	C118.896843,314.819641 138.188828,311.708252 155.292496,296.808441 
M46.899628,203.882629 
	C47.336048,203.623413 47.772472,203.364197 48.208897,203.104980 
	C47.612782,203.146667 47.016666,203.188339 46.899628,203.882629 
M373.831085,207.465240 
	C373.627808,207.379608 373.424500,207.293976 373.221222,207.208344 
	C373.275879,207.426422 373.330536,207.644516 373.831085,207.465240 
z"/>
<path fill="#0AA01B" opacity="1.000000" stroke="none" 
	d="
M168.058517,91.240982 
	C167.567917,90.498238 167.077301,89.755486 166.301682,88.840759 
	C165.666992,85.107162 165.317322,81.545547 165.491577,77.537827 
	C174.587677,76.956940 183.159821,76.822174 192.224365,76.762009 
	C206.558746,76.785782 220.400711,76.734962 234.625397,76.785652 
	C236.589783,76.821350 238.171463,76.755539 240.204788,76.768158 
	C242.797775,76.776062 244.939133,76.705536 247.408356,76.732140 
	C249.181122,76.989265 250.626022,77.149261 252.070908,77.309258 
	C251.742157,80.968513 251.413391,84.627777 250.819397,88.827042 
	C250.158997,89.928963 249.763824,90.490875 248.947922,91.041794 
	C246.564529,91.055542 244.601913,91.098389 242.639221,91.102295 
	C217.778992,91.151779 192.918747,91.195671 168.058517,91.240982 
z"/>
<path fill="#CBA20A" opacity="1.000000" stroke="none" 
	d="
M240.729614,46.857967 
	C240.729614,46.857967 241.028488,47.125011 241.198181,47.606407 
	C241.676086,48.355907 241.984299,48.624012 242.292526,48.892113 
	C242.292526,48.892113 242.127960,48.859924 242.228546,49.120224 
	C243.332367,50.526943 244.335587,51.673367 245.338806,52.819786 
	C245.338806,52.819782 245.228836,52.816681 245.227875,53.144165 
	C246.179016,56.300480 247.131134,59.129311 247.606476,61.964417 
	C221.121780,61.980274 195.113876,61.989861 169.148010,61.636612 
	C169.856033,59.416187 170.285812,57.425579 171.240326,55.730446 
	C172.903381,52.777027 174.889893,50.005741 176.740829,47.158112 
	C176.740829,47.158112 176.727936,46.893345 177.288940,46.918228 
	C198.809830,46.914726 219.769730,46.886345 240.729614,46.857967 
z"/>
<path fill="#BE0705" opacity="1.000000" stroke="none" 
	d="
M240.683777,46.548206 
	C219.769730,46.886345 198.809830,46.914726 177.391556,46.834335 
	C178.783661,44.695415 180.393799,42.360104 182.522659,40.683376 
	C199.525253,27.291882 227.581116,30.030510 240.683777,46.548206 
z"/>
<path fill="#B1B937" opacity="1.000000" stroke="none" 
	d="
M176.437775,47.205994 
	C174.889893,50.005741 172.903381,52.777027 171.240326,55.730446 
	C170.285812,57.425579 169.856033,59.416187 169.031891,62.006325 
	C168.318939,63.928337 167.576447,65.067261 167.240341,66.315613 
	C165.289688,73.560593 167.119507,75.859184 174.576126,76.012596 
	C180.296951,76.130295 186.013519,76.454849 191.731979,76.687408 
	C183.159821,76.822174 174.587677,76.956940 165.555740,77.115707 
	C163.904556,65.378586 168.469376,55.743618 176.437775,47.205994 
z"/>
<path fill="#B1B937" opacity="1.000000" stroke="none" 
	d="
M248.083252,61.958138 
	C247.131134,59.129311 246.179016,56.300480 245.245087,53.091927 
	C250.437363,59.946869 253.371841,67.842140 252.233032,77.100159 
	C250.626022,77.149261 249.181122,76.989265 247.540298,76.428368 
	C250.902496,74.717392 251.687775,72.071533 250.655853,68.745880 
	C249.940140,66.439293 248.950516,64.217705 248.083252,61.958138 
z"/>
<path fill="#AFAFAF" opacity="1.000000" stroke="none" 
	d="
M274.061707,310.778046 
	C273.857941,310.031311 273.894775,309.523712 273.948914,308.634766 
	C278.227173,309.422119 282.488098,310.590790 286.953674,312.403381 
	C287.104767,313.369324 287.051239,313.691345 286.997711,314.013336 
	C282.765900,313.014618 278.534088,312.015900 274.061707,310.778046 
z"/>
<path fill="#C1C1C1" opacity="1.000000" stroke="none" 
	d="
M249.368652,91.052780 
	C249.763824,90.490875 250.158997,89.928963 250.801346,89.285431 
	C252.981720,90.917908 254.914917,92.632011 256.995544,94.642319 
	C256.150665,95.593483 255.158371,96.248436 253.558548,96.963638 
	C251.984985,96.248222 251.018982,95.472549 249.950439,94.399017 
	C249.688141,93.085030 249.528397,92.068901 249.368652,91.052780 
z"/>
<path fill="#B1B937" opacity="1.000000" stroke="none" 
	d="
M245.266449,52.488079 
	C244.335587,51.673367 243.332367,50.526943 242.254196,49.040398 
	C243.184204,49.852310 244.189163,51.004341 245.266449,52.488079 
z"/>
<path fill="#C1C1C1" opacity="1.000000" stroke="none" 
	d="
M287.498413,314.278900 
	C287.051239,313.691345 287.104767,313.369324 287.251587,312.566528 
	C287.918976,312.140411 288.493103,312.195038 289.297791,312.621338 
	C289.018616,313.510162 288.508850,314.027313 287.498413,314.278900 
z"/>
<path fill="#B1B937" opacity="1.000000" stroke="none" 
	d="
M242.249680,48.562569 
	C241.984299,48.624012 241.676086,48.355907 241.256042,47.798271 
	C241.498413,47.750172 241.852615,47.991596 242.249680,48.562569 
z"/>
<path fill="#030303" opacity="1.000000" stroke="none" 
	d="
M250.052979,94.696869 
	C251.018982,95.472549 251.984985,96.248222 253.241623,97.128693 
	C268.186188,110.671288 282.854187,124.093758 297.489777,137.551529 
	C310.035126,149.087296 322.543365,160.663483 334.908356,172.776459 
	C333.806000,176.479919 335.623413,175.490845 337.152252,174.934387 
	C339.515045,176.602646 342.037170,178.087738 344.208252,179.976364 
	C349.092896,184.225540 353.803497,188.674744 358.368530,193.472687 
	C357.768311,195.299713 357.384552,196.696564 357.000793,198.093414 
	C358.374634,197.289444 359.748444,196.485474 361.122253,195.681488 
	C363.098145,197.343140 365.074005,199.004791 367.201080,201.321686 
	C368.310364,202.621048 369.268463,203.265137 370.226562,203.909241 
	C370.904663,204.974411 371.582764,206.039597 372.260864,207.104782 
	C371.118347,207.042679 369.916321,207.185806 368.845825,206.875351 
	C366.684967,206.248672 364.595551,205.375549 362.178406,204.054901 
	C361.240540,203.373520 360.600922,203.241287 359.961334,203.109070 
	C351.225250,200.051575 342.625214,196.505569 333.727844,194.027069 
	C305.643463,186.203751 277.908844,185.722748 251.346100,199.825684 
	C246.233826,202.539902 241.742233,206.478653 236.531250,208.933090 
	C232.690567,210.742096 228.001236,212.282349 223.939499,211.807724 
	C210.614899,210.250595 197.527573,210.053772 184.270859,212.699097 
	C180.895920,213.372543 176.630081,211.197556 173.169403,209.516525 
	C163.504105,204.821594 154.427902,198.668930 144.425461,194.965088 
	C124.715927,187.666748 104.175346,188.021973 83.932190,192.612686 
	C72.848869,195.126160 62.180389,199.465881 51.317432,202.959000 
	C50.282333,203.291840 49.194256,203.459885 46.659573,204.042755 
	C48.431103,201.924866 49.193581,200.762985 50.189758,199.858475 
	C88.760597,164.837646 127.352562,129.840103 165.945343,94.843437 
	C166.314011,94.509117 166.730820,94.227867 167.576645,94.108276 
	C171.264709,98.557251 174.501282,102.819786 177.906067,107.375961 
	C185.455383,115.661812 195.020081,119.635826 205.453522,120.355621 
	C218.523941,121.257332 230.321014,117.360931 239.646301,107.042351 
	C243.332916,102.890182 246.692947,98.793526 250.052979,94.696869 
M346.679901,191.844452 
	C347.319336,191.832474 347.958801,191.820496 348.598236,191.808517 
	C348.234528,191.195602 347.870850,190.582672 347.507141,189.969757 
	C347.135895,190.433823 346.764679,190.897873 346.679901,191.844452 
M342.469727,183.496841 
	C342.469727,183.496841 342.513336,183.479675 342.469727,183.496841 
z"/>
<path fill="#030303" opacity="1.000000" stroke="none" 
	d="
M155.024597,297.042542 
	C138.188828,311.708252 118.896843,314.819641 97.839920,311.323181 
	C88.070450,309.700989 78.767265,307.067932 70.380104,301.690674 
	C54.470173,291.490295 46.149891,276.159149 41.420097,258.482208 
	C38.589546,247.903381 37.598331,237.120346 40.736897,226.509842 
	C44.833099,212.661880 55.516449,205.139145 68.309410,200.470627 
	C94.432625,190.937531 120.926857,189.299255 147.296158,199.193832 
	C162.981873,205.079590 173.929916,215.907181 177.377319,232.990433 
	C179.306656,242.550949 177.579300,251.885818 174.936737,261.037354 
	C171.077560,274.402191 165.767090,287.042725 155.024597,297.042542 
z"/>
<path fill="#132093" opacity="1.000000" stroke="none" 
	d="
M249.950439,94.399002 
	C246.692947,98.793526 243.332916,102.890182 239.149261,107.015984 
	C218.129700,107.057518 197.933777,107.069916 177.737839,107.082321 
	C174.501282,102.819786 171.264709,98.557251 167.872604,93.943481 
	C167.791733,93.000473 167.866394,92.408691 167.999786,91.528946 
	C192.918747,91.195671 217.778992,91.151779 242.639221,91.102295 
	C244.601913,91.098389 246.564529,91.055542 248.947922,91.041786 
	C249.528397,92.068901 249.688141,93.085030 249.950439,94.399002 
M183.484940,93.048698 
	C182.319489,93.047943 181.132584,92.904022 179.992798,93.074677 
	C177.170578,93.497208 174.369873,94.063652 171.560532,94.572273 
	C173.532303,97.700386 175.278076,101.012886 177.598282,103.856712 
	C178.411560,104.853523 180.640671,105.035683 182.216660,105.017471 
	C199.335052,104.819710 216.460358,104.113960 233.564438,104.471878 
	C238.578140,104.576797 241.935608,104.003220 244.023331,99.461319 
	C244.757309,97.864532 245.155991,96.113632 245.707748,94.433098 
	C244.053192,93.970062 242.391052,93.085808 240.745361,93.115440 
	C232.776215,93.258980 224.810532,93.913864 216.845428,93.884926 
	C206.047577,93.845695 195.251404,93.349136 183.484940,93.048698 
z"/>
<path fill="#080808" opacity="1.000000" stroke="none" 
	d="
M361.019226,195.447510 
	C359.748444,196.485474 358.374634,197.289444 357.000793,198.093414 
	C357.384552,196.696564 357.768311,195.299713 358.541443,193.792114 
	C359.592590,194.192093 360.254364,194.702805 361.019226,195.447510 
z"/>
<path fill="#060606" opacity="1.000000" stroke="none" 
	d="
M337.046875,174.661804 
	C335.623413,175.490845 333.806000,176.479919 334.966492,173.124603 
	C335.770020,173.408463 336.355774,173.898849 337.046875,174.661804 
z"/>
<path fill="#080808" opacity="1.000000" stroke="none" 
	d="
M370.075806,203.612610 
	C369.268463,203.265137 368.310364,202.621048 367.364258,201.583908 
	C368.225830,201.899246 369.075409,202.607620 370.075806,203.612610 
z"/>
<path fill="#080808" opacity="1.000000" stroke="none" 
	d="
M360.158142,203.321808 
	C360.600922,203.241287 361.240540,203.373520 361.934692,203.767914 
	C361.444489,203.864914 360.899689,203.699722 360.158142,203.321808 
z"/>
<path fill="#030303" opacity="1.000000" stroke="none" 
	d="
M46.660088,203.556335 
	C47.016666,203.188339 47.612782,203.146667 48.208897,203.104980 
	C47.772472,203.364197 47.336048,203.623413 46.660088,203.556335 
z"/>
<path fill="#080808" opacity="1.000000" stroke="none" 
	d="
M373.608154,207.663910 
	C373.330536,207.644516 373.275879,207.426422 373.221222,207.208344 
	C373.424500,207.293976 373.627808,207.379608 373.608154,207.663910 
z"/>
<path fill="#C6CB09" opacity="1.000000" stroke="none" 
	d="
M247.606476,61.964413 
	C248.950516,64.217705 249.940140,66.439293 250.655853,68.745880 
	C251.687775,72.071533 250.902496,74.717392 247.212418,76.331238 
	C244.939133,76.705536 242.797775,76.776062 239.938416,76.597794 
	C237.561157,76.460709 235.901917,76.572426 234.242691,76.684143 
	C220.400711,76.734962 206.558746,76.785782 192.224365,76.762009 
	C186.013519,76.454849 180.296951,76.130295 174.576126,76.012596 
	C167.119507,75.859184 165.289688,73.560593 167.240341,66.315613 
	C167.576447,65.067261 168.318939,63.928337 168.989853,62.369156 
	C195.113876,61.989861 221.121780,61.980274 247.606476,61.964413 
z"/>
<path fill="#B1B937" opacity="1.000000" stroke="none" 
	d="
M234.625397,76.785652 
	C235.901917,76.572426 237.561157,76.460709 239.486755,76.519363 
	C238.171463,76.755539 236.589783,76.821350 234.625397,76.785652 
z"/>
<path fill="#4D0897" opacity="1.000000" stroke="none" 
	d="
M177.906067,107.375961 
	C197.933777,107.069916 218.129700,107.057518 238.822662,107.071487 
	C230.321014,117.360931 218.523941,121.257332 205.453522,120.355621 
	C195.020081,119.635826 185.455383,115.661812 177.906067,107.375961 
z"/>
<path fill="#080808" opacity="1.000000" stroke="none" 
	d="
M346.536682,191.603195 
	C346.764679,190.897873 347.135895,190.433823 347.507141,189.969757 
	C347.870850,190.582672 348.234528,191.195602 348.598236,191.808517 
	C347.958801,191.820496 347.319336,191.832474 346.536682,191.603195 
z"/>
<path fill="#080808" opacity="1.000000" stroke="none" 
	d="
M342.491516,183.488251 
	C342.513336,183.479675 342.469727,183.496841 342.491516,183.488251 
z"/>
<path fill="#050CC0" opacity="1.000000" stroke="none" 
	d="
M183.969727,93.048721 
	C195.251404,93.349136 206.047577,93.845695 216.845428,93.884926 
	C224.810532,93.913864 232.776215,93.258980 240.745361,93.115440 
	C242.391052,93.085808 244.053192,93.970062 245.707764,94.433105 
	C245.155991,96.113632 244.757309,97.864532 244.023331,99.461319 
	C241.935608,104.003220 238.578140,104.576797 233.564438,104.471878 
	C216.460358,104.113960 199.335052,104.819710 182.216660,105.017471 
	C180.640671,105.035683 178.411560,104.853523 177.598282,103.856712 
	C175.278076,101.012886 173.532303,97.700386 171.560532,94.572266 
	C174.369873,94.063652 177.170578,93.497208 179.992798,93.074677 
	C181.132584,92.904022 182.319489,93.047943 183.969727,93.048721 
z"/>
</svg>