<svg version="1.1" id="Layer_1" xmlns="http://www.w3.org/2000/svg" xmlns:xlink="http://www.w3.org/1999/xlink" x="0px" y="0px"
	 width="100%" viewBox="0 0 419 422" enable-background="new 0 0 419 422" xml:space="preserve">
<path fill="#000000" opacity="1.000000" stroke="none" 
	d="
M222.000000,423.000000 
	C149.333344,423.000000 77.166634,422.968994 5.000196,423.096375 
	C1.575727,423.102448 0.902288,422.423828 0.905049,418.999939 
	C1.016350,281.000031 1.016348,143.000046 0.905064,5.000153 
	C0.902303,1.576506 1.576023,0.902247 5.000000,0.905032 
	C141.999893,1.016467 278.999878,1.016460 415.999786,0.905059 
	C419.423370,0.902275 420.097748,1.575881 420.095001,4.999949 
	C419.983673,142.999832 419.983704,280.999847 420.094971,418.999725 
	C420.097717,422.423157 419.425110,423.103699 416.000000,423.096710 
	C351.500183,422.965332 287.000061,423.000000 222.000000,423.000000 
z"/>
<path fill="#C1C1C1" opacity="1.000000" stroke="none" 
	d="
M274.128540,310.288971 
	C262.170410,307.316589 252.889587,300.641724 245.644699,291.065857 
	C235.901978,278.188568 230.029770,263.755219 228.293213,247.661697 
	C227.758759,242.708618 226.989883,237.797150 226.741516,232.795242 
	C226.366150,225.234741 221.403809,220.950943 212.260757,219.953293 
	C205.769516,219.244995 199.262207,219.602234 192.945175,221.264969 
	C188.910355,222.326996 186.499695,225.441727 185.808243,229.456802 
	C184.652542,236.167648 183.885544,242.944580 182.894974,249.684891 
	C180.343552,267.045929 173.600906,282.510895 161.797684,295.605988 
	C149.815659,308.899445 134.063568,314.261383 116.904671,315.387115 
	C88.180344,317.271698 64.184387,308.120972 48.113331,282.957581 
	C40.206318,270.577118 37.019558,256.408051 33.914955,242.277710 
	C33.166584,238.871552 32.603188,235.413422 31.648098,232.066711 
	C30.293808,227.321167 26.894283,224.350845 22.167902,223.483200 
	C17.251415,222.580658 18.811403,218.989273 18.523466,216.116623 
	C18.190508,212.794785 20.686003,212.299637 23.027763,212.084366 
	C28.348522,211.595215 32.670097,209.623276 36.750019,205.898941 
	C79.538788,166.839294 122.495789,127.963936 165.703766,88.857262 
	C167.278152,88.471107 168.120712,89.128624 168.982239,90.473412 
	C169.280411,91.398094 169.330215,91.946320 169.229401,92.899551 
	C168.183548,95.693680 166.323029,97.399902 164.492355,99.084587 
	C147.106262,115.084221 129.718933,131.082184 112.020477,146.738922 
	C104.045044,153.794281 96.346298,161.155746 88.444336,168.296326 
	C77.356842,178.315536 66.349037,188.425339 54.948517,198.733276 
	C72.384377,191.539124 90.213547,187.471237 108.606972,187.252075 
	C126.727661,187.036209 144.439056,189.873581 160.461655,199.342361 
	C165.044189,202.050476 169.748688,204.538910 174.223022,207.447113 
	C178.231583,210.052582 182.523056,211.304077 187.489670,209.962570 
	C198.632553,206.952866 209.959198,207.691223 221.175064,209.395370 
	C227.158951,210.304550 232.308029,209.299088 237.252319,205.902893 
	C246.046448,199.862289 254.942032,193.876938 265.376923,191.000641 
	C288.193848,184.711273 310.981964,184.992966 333.777954,191.447113 
	C345.028778,194.632523 355.595428,199.581604 366.576813,203.444122 
	C368.499634,204.120438 369.952667,205.546005 371.833679,206.842026 
	C372.262695,207.038544 372.422607,207.106964 372.864716,207.058487 
	C373.146912,206.941605 372.667816,207.065796 372.398987,207.001373 
	C363.741089,201.723816 356.937836,194.606323 349.707367,188.033325 
	C332.619751,172.499588 315.455963,157.048233 298.436249,141.442215 
	C285.824432,129.877975 272.793823,118.771736 260.503052,106.861534 
	C256.344177,102.831451 251.223007,99.761192 247.997192,94.284302 
	C247.608170,93.173904 247.578339,92.398376 247.814941,91.222275 
	C248.394653,89.783325 249.140106,89.052895 250.664886,88.991135 
	C271.862030,108.044342 292.712311,126.898605 313.522156,145.797409 
	C336.800323,166.937820 360.050262,188.109375 383.286896,209.295425 
	C385.740570,211.532562 388.654175,212.554489 391.828613,212.884247 
	C393.801514,213.089203 395.807495,213.277298 395.420654,215.833588 
	C395.024384,218.452164 397.272339,222.044678 392.857910,223.388428 
	C385.296021,225.690277 382.140717,231.087830 380.749512,238.718979 
	C377.796173,254.919189 373.938202,271.057159 364.660797,284.976990 
	C348.215454,309.651642 324.186127,317.968811 295.576599,315.497253 
	C292.935974,315.269135 290.314362,314.821533 287.336548,314.255707 
	C286.866425,313.796509 286.743591,313.557434 286.738098,312.933167 
	C288.980743,310.250031 291.810425,310.896271 294.383392,310.933411 
	C304.221680,311.075439 313.963043,310.501190 323.588318,308.247559 
	C344.511841,303.348663 357.626953,289.769958 365.612000,270.539246 
	C368.607727,263.324646 371.024078,255.949265 372.254364,248.133575 
	C375.027466,230.516525 367.669434,215.150620 351.888458,206.949310 
	C333.968567,197.636414 314.976562,192.819473 294.701660,194.181259 
	C278.456787,195.272354 262.699768,197.959686 249.517868,208.842545 
	C241.775940,215.234222 237.250473,223.319672 236.309265,233.106537 
	C235.079971,245.888992 237.330109,258.311554 242.138794,270.204590 
	C245.824509,279.320282 249.723083,288.308441 257.496704,294.976624 
	C260.933044,297.924316 264.629547,300.403290 268.431091,302.793732 
	C270.652283,304.190430 273.275696,305.101746 274.710388,308.034546 
	C274.828278,308.992981 274.706085,309.522064 274.128540,310.288971 
z"/>
<path fill="#C5CB0A" opacity="1.000000" stroke="none" 
	d="
M165.459045,77.373520 
	C164.305740,71.600891 165.148590,66.425430 167.691345,61.202805 
	C169.899200,59.715977 172.088226,59.793961 174.241898,59.792004 
	C197.011322,59.771336 219.780762,59.745441 242.550125,59.806675 
	C244.867508,59.812908 247.243515,59.700069 249.572617,61.659889 
	C251.432404,64.001656 251.448288,66.498299 252.217422,69.181908 
	C252.386948,71.707825 252.484253,73.826370 252.494537,76.389107 
	C251.161484,79.169106 248.892517,79.126633 246.746613,79.139610 
	C221.480164,79.292427 196.213440,79.273155 170.946915,79.149780 
	C169.137787,79.140938 167.245499,79.199547 165.459045,77.373520 
z"/>
<path fill="#0AA01A" opacity="1.000000" stroke="none" 
	d="
M165.029816,77.446945 
	C193.924225,76.974899 222.743210,76.928833 251.984848,76.858032 
	C253.018936,80.790794 251.674957,84.520470 251.048477,88.753189 
	C250.558716,89.703957 250.087860,90.237488 249.466949,91.006882 
	C247.454361,92.901001 245.196045,93.191269 242.821671,93.197365 
	C219.938278,93.256081 197.054901,93.268814 174.171646,93.173523 
	C172.370850,93.166023 170.489777,93.296867 168.503128,91.794975 
	C167.592453,90.699593 167.101913,89.876907 166.306305,88.865570 
	C165.652298,85.075584 165.303329,81.474251 165.029816,77.446945 
z"/>
<path fill="#CBA10A" opacity="1.000000" stroke="none" 
	d="
M249.938354,61.616241 
	C225.001114,61.980686 200.055832,61.985855 175.110565,61.971012 
	C172.964172,61.969734 170.772629,62.264717 168.339996,61.124622 
	C169.250137,55.390030 172.334534,50.915821 176.658142,46.857445 
	C178.789474,44.895515 181.120773,44.817799 183.465958,44.808678 
	C200.238205,44.743446 217.010468,44.748375 233.782684,44.808849 
	C235.945724,44.816647 238.121384,44.856514 240.363159,46.535244 
	C245.350677,50.670906 247.804291,55.856537 249.938354,61.616241 
z"/>
<path fill="#BD0705" opacity="1.000000" stroke="none" 
	d="
M240.691742,46.558525 
	C219.782272,46.894875 198.832489,46.919777 177.429169,46.832062 
	C177.049057,45.264309 177.973679,44.313889 178.940750,43.381718 
	C194.701813,28.189474 224.074265,28.616858 239.167343,44.274353 
	C239.734177,44.862385 240.159927,45.586414 240.691742,46.558525 
z"/>
<path fill="#A8A8A8" opacity="1.000000" stroke="none" 
	d="
M287.294647,311.645386 
	C287.248993,312.388245 287.191254,312.716797 287.061340,313.540436 
	C282.492706,314.140259 278.447266,312.332306 274.046509,310.798645 
	C273.853363,310.044342 273.894257,309.529907 273.948730,308.628662 
	C278.500977,306.282043 283.383514,307.377747 287.294647,311.645386 
z"/>
<path fill="#0AA01A" opacity="1.000000" stroke="none" 
	d="
M252.323883,69.618439 
	C252.289658,69.589279 252.282059,69.509148 252.315689,69.543701 
	C252.349319,69.578262 252.358109,69.647598 252.323883,69.618439 
z"/>
<path fill="#010102" opacity="1.000000" stroke="none" 
	d="
M248.987305,94.063263 
	C290.724487,131.544144 332.105164,169.075836 373.715637,206.849548 
	C374.089996,207.357391 374.234528,207.623230 374.186768,208.300232 
	C363.949371,204.866989 353.926453,200.963196 343.854706,197.189865 
	C318.507324,187.693573 292.717651,186.014023 266.492035,193.083740 
	C255.706207,195.991302 246.669250,202.348679 237.617859,208.472534 
	C232.539474,211.908417 227.392578,212.840210 221.609436,211.835327 
	C209.512939,209.733444 197.471878,209.789597 185.513901,212.799988 
	C180.668518,214.019821 176.770004,211.738831 172.902710,209.408905 
	C163.818726,203.936066 154.890686,198.179291 144.714386,194.805634 
	C124.744865,188.185287 104.494469,188.454147 84.119980,192.373199 
	C72.683594,194.573013 61.670765,198.161118 51.074223,203.014481 
	C50.223763,203.403992 49.266922,203.561249 47.856834,203.973328 
	C48.068024,200.984634 50.112568,199.999023 51.554794,198.688385 
	C89.605324,164.109482 127.677605,129.554489 165.737228,94.985580 
	C166.346741,94.431961 166.845047,93.755890 167.695496,92.970009 
	C170.802032,94.045723 171.479019,96.960327 173.008240,99.202553 
	C174.385086,101.221352 175.667587,103.312027 177.882111,105.109436 
	C183.032532,111.482597 189.946213,114.381485 197.036850,116.727257 
	C210.223862,121.089844 222.267929,118.020798 233.330765,110.220863 
	C235.342789,108.802277 237.844833,107.974892 239.392334,105.392914 
	C243.360626,102.060837 244.585175,96.919891 248.987305,94.063263 
z"/>
<path fill="#010101" opacity="1.000000" stroke="none" 
	d="
M287.758301,312.033203 
	C283.104614,310.832886 278.902527,309.606049 274.331360,308.310486 
	C250.006760,298.373688 239.768906,278.382477 235.270462,254.656921 
	C233.404358,244.814819 232.029327,234.646057 235.601837,224.679779 
	C241.233231,208.969849 253.501373,200.602295 268.546509,196.166870 
	C296.826691,187.829712 324.342346,190.695526 350.882996,203.476791 
	C369.037750,212.219620 377.579132,227.205582 374.607178,248.360596 
	C372.066925,266.442505 364.994843,282.891846 351.651276,295.946198 
	C340.714996,306.645416 326.983978,311.226135 312.108612,312.665436 
	C304.152588,313.435242 296.146637,313.290710 287.758301,312.033203 
z"/>
<path fill="#010101" opacity="1.000000" stroke="none" 
	d="
M72.896057,198.681763 
	C98.117409,191.293701 123.036713,189.747223 147.614380,199.283234 
	C163.239334,205.345627 174.239258,216.242096 177.448822,233.300919 
	C179.597198,244.719620 176.801102,255.735291 173.225586,266.570007 
	C167.909698,282.678497 159.530045,296.494629 144.175095,304.879822 
	C130.231766,312.494110 115.181358,314.128784 99.687424,311.767548 
	C89.498825,310.214874 79.581306,307.604034 70.719154,301.941772 
	C54.635666,291.665558 46.165363,276.269928 41.408451,258.414062 
	C38.591141,247.838776 37.537018,237.038483 40.774139,226.457504 
	C45.556736,210.824905 58.261292,203.822495 72.896057,198.681763 
z"/>
<path fill="#0712B3" opacity="1.000000" stroke="none" 
	d="
M177.368286,106.462624 
	C172.239929,103.207069 170.155685,98.413719 168.105927,93.161758 
	C167.962341,92.514954 167.962463,92.226868 168.039581,91.730545 
	C175.386765,91.424828 182.690369,91.259903 189.994308,91.242958 
	C209.438919,91.197838 228.883682,91.216446 248.822647,91.226227 
	C249.285233,91.935318 249.253555,92.627884 249.282867,93.666443 
	C246.912750,98.086769 245.114273,102.597824 240.963913,105.859436 
	C238.266312,107.762177 235.546005,108.214638 232.660950,108.217178 
	C216.595795,108.231308 200.530685,108.245842 184.465591,108.202644 
	C182.136246,108.196381 179.811523,108.125221 177.368286,106.462624 
z"/>
<path fill="#010102" opacity="1.000000" stroke="none" 
	d="
M47.353836,203.873077 
	C46.740162,203.601624 46.095196,203.334824 46.825813,202.975906 
	C47.161545,202.810944 47.579983,202.814346 47.960922,202.741409 
	C47.895767,203.112946 47.830616,203.484467 47.353836,203.873077 
z"/>
<path fill="#414141" opacity="1.000000" stroke="none" 
	d="
M374.086609,208.860092 
	C373.962372,208.442139 373.930206,208.172882 373.921753,207.497589 
	C374.415253,207.382278 374.885040,207.672989 375.543152,208.176575 
	C375.763123,208.719604 375.794830,209.049774 375.340393,209.274216 
	C374.615692,209.171692 374.390503,209.118454 374.086609,208.860092 
z"/>
<path fill="#414141" opacity="1.000000" stroke="none" 
	d="
M375.507538,208.579010 
	C376.018707,208.818115 376.909576,209.010971 376.398804,209.720810 
	C376.271942,209.897141 375.584045,209.669739 375.004120,209.398193 
	C374.997345,209.035187 375.140472,208.901886 375.507538,208.579010 
z"/>
<path fill="#4A0899" opacity="1.000000" stroke="none" 
	d="
M177.037994,106.494484 
	C197.898773,106.125580 218.838257,106.070549 240.215149,106.017090 
	C230.558624,118.895050 209.961227,124.022812 193.533997,117.646172 
	C187.304276,115.227951 181.349823,112.296646 177.037994,106.494484 
z"/>
</svg>